<svg width="36" height="36" viewBox="0 0 36 36" fill="none" xmlns="http://www.w3.org/2000/svg">
<g id="Group">
<path id="Vector" d="M21 21.3781V33.0001H6C5.99953 31.1684 6.41838 29.3609 7.22445 27.7161C8.03051 26.0714 9.20241 24.633 10.6503 23.5111C12.0982 22.3893 13.7838 21.6138 15.5777 21.244C17.3717 20.8743 19.2265 20.9201 21 21.3781ZM18 19.5001C13.0275 19.5001 9 15.4726 9 10.5001C9 5.52756 13.0275 1.50006 18 1.50006C22.9725 1.50006 27 5.52756 27 10.5001C27 15.4726 22.9725 19.5001 18 19.5001ZM27 25.5001V21.0001H30V25.5001H34.5V28.5001H30V33.0001H27V28.5001H22.5V25.5001H27Z" fill="white"/>
</g>
</svg>
