<svg width="20" height="19" viewBox="0 0 20 19" fill="none" xmlns="http://www.w3.org/2000/svg">
<path id="Vector" d="M4.62087 10.9091C4.57127 10.6135 4.54545 10.3097 4.54545 10C4.54545 6.98754 6.98754 4.54545 10 4.54545C13.0125 4.54545 15.4545 6.98754 15.4545 10C15.4545 10.3097 15.4287 10.6135 15.3791 10.9091H4.62087ZM0.909091 12.7273H10V14.5455H0.909091V12.7273ZM11.8182 12.7273H19.0909V14.5455H11.8182V12.7273ZM13.6364 16.3636H17.2727V18.1818H13.6364V16.3636ZM2.72727 16.3636H11.8182V18.1818H2.72727V16.3636ZM9.09091 0H10.9091V2.72727H9.09091V0ZM2.28611 3.57175L3.57175 2.28611L5.50023 4.21458L4.21458 5.50023L2.28611 3.57175ZM16.4283 2.28611L17.7139 3.57175L15.7855 5.50023L14.4997 4.21458L16.4283 2.28611ZM20 9.09091V10.9091H17.2727V9.09091H20ZM2.72727 9.09091V10.9091H0V9.09091H2.72727Z" fill="white"/>
</svg>
