<svg width="36" height="28" viewBox="0 0 36 28" fill="none" xmlns="http://www.w3.org/2000/svg">
<path id="Vector" d="M1.63636 20.3644H8L16.6637 27.4528C16.8099 27.5724 16.993 27.6377 17.1818 27.6377C17.6336 27.6377 18 27.2715 18 26.8195V0.818205C18 0.629336 17.9347 0.446276 17.8151 0.300099C17.5289 -0.0496245 17.0134 -0.10117 16.6637 0.184965L8 7.27346H1.63636C0.732633 7.27346 0 8.00608 0 8.90983V18.7281C0 19.6318 0.732633 20.3644 1.63636 20.3644ZM36 13.8188C36 19.2057 33.6337 24.04 29.8836 27.3388L27.5637 25.0187C30.724 22.3176 32.7273 18.3021 32.7273 13.8188C32.7273 9.33543 30.724 5.32 27.5637 2.61883L29.8836 0.298823C33.6337 3.59755 36 8.43181 36 13.8188ZM27.8182 13.8188C27.8182 10.6906 26.3553 7.90413 24.0763 6.10618L21.7378 8.44472C23.4349 9.62734 24.5455 11.5933 24.5455 13.8188C24.5455 16.0443 23.4349 18.0102 21.7378 19.1928L24.0763 21.5313C26.3553 19.7334 27.8182 16.9469 27.8182 13.8188Z" fill="#424242"/>
</svg>
