<svg width="22" height="20" viewBox="0 0 22 20" fill="none" xmlns="http://www.w3.org/2000/svg">
<path id="Vector" d="M17.9038 0C18.4561 0 18.9038 0.44772 18.9038 1V4.757L16.9038 6.757V2H2.90381V18H16.9038V15.242L18.9038 13.242V19C18.9038 19.5523 18.4561 20 17.9038 20H1.90381C1.35153 20 0.903809 19.5523 0.903809 19V1C0.903809 0.44772 1.35153 0 1.90381 0H17.9038ZM19.682 6.80761L21.0962 8.2218L13.318 16L11.9017 15.9979L11.9038 14.5858L19.682 6.80761ZM10.9038 10V12H5.90381V10H10.9038ZM13.9038 6V8H5.90381V6H13.9038Z" fill="white"/>
</svg>
