<svg width="25" height="18" viewBox="0 0 25 18" fill="none" xmlns="http://www.w3.org/2000/svg">
<path id="Vector" d="M16.8636 0.300049C17.4661 0.300049 17.9545 0.786944 17.9545 1.38755V5.95505L23.6418 1.98645C23.8885 1.81423 24.2287 1.87406 24.4014 2.12009C24.4655 2.21148 24.5 2.32034 24.5 2.43191V15.5682C24.5 15.8685 24.2557 16.112 23.9545 16.112C23.8426 16.112 23.7334 16.0776 23.6418 16.0137L17.9545 12.045V16.6125C17.9545 17.2132 17.4661 17.7 16.8636 17.7H1.59091C0.988422 17.7 0.5 17.2132 0.5 16.6125V1.38755C0.5 0.786944 0.988422 0.300049 1.59091 0.300049H16.8636ZM15.7727 2.47505H2.68182V15.525H15.7727V2.47505ZM8.13636 4.65005H10.3182V7.91255H13.5909V10.0875H10.3171L10.3182 13.35H8.13636L8.13527 10.0875H4.86364V7.91255H8.13636V4.65005ZM22.3182 5.56497L17.9545 8.60964V9.39046L22.3182 12.4351V5.56497Z" fill="white"/>
</svg>
