<svg width="36" height="36" viewBox="0 0 36 36" fill="none" xmlns="http://www.w3.org/2000/svg">
<path id="Vector" d="M18 16.2C20.3869 16.2 22.6761 17.1482 24.364 18.836C26.0518 20.5239 27 22.8131 27 25.2V36H9V25.2C9 22.8131 9.94821 20.5239 11.636 18.836C13.3239 17.1482 15.6131 16.2 18 16.2ZM5.9184 21.6108C5.63194 22.577 5.46273 23.5742 5.4144 24.5808L5.4 25.2V36H1.6437e-07V27.9C-0.000354253 26.3476 0.572451 24.8498 1.60854 23.6938C2.64463 22.5378 4.07106 21.805 5.6142 21.636L5.9202 21.6108H5.9184ZM30.0816 21.6108C31.6834 21.7084 33.1877 22.4135 34.2875 23.5822C35.3873 24.7509 35.9998 26.2952 36 27.9V36H30.6V25.2C30.6 23.9526 30.42 22.7484 30.0816 21.6108ZM6.3 10.8C7.49347 10.8 8.63807 11.2741 9.48198 12.118C10.3259 12.9619 10.8 14.1065 10.8 15.3C10.8 16.4935 10.3259 17.6381 9.48198 18.482C8.63807 19.3259 7.49347 19.8 6.3 19.8C5.10653 19.8 3.96193 19.3259 3.11802 18.482C2.27411 17.6381 1.8 16.4935 1.8 15.3C1.8 14.1065 2.27411 12.9619 3.11802 12.118C3.96193 11.2741 5.10653 10.8 6.3 10.8ZM29.7 10.8C30.8935 10.8 32.0381 11.2741 32.882 12.118C33.7259 12.9619 34.2 14.1065 34.2 15.3C34.2 16.4935 33.7259 17.6381 32.882 18.482C32.0381 19.3259 30.8935 19.8 29.7 19.8C28.5065 19.8 27.3619 19.3259 26.518 18.482C25.6741 17.6381 25.2 16.4935 25.2 15.3C25.2 14.1065 25.6741 12.9619 26.518 12.118C27.3619 11.2741 28.5065 10.8 29.7 10.8ZM18 0C19.9096 0 21.7409 0.758569 23.0912 2.10883C24.4414 3.45909 25.2 5.29044 25.2 7.2C25.2 9.10956 24.4414 10.9409 23.0912 12.2912C21.7409 13.6414 19.9096 14.4 18 14.4C16.0904 14.4 14.2591 13.6414 12.9088 12.2912C11.5586 10.9409 10.8 9.10956 10.8 7.2C10.8 5.29044 11.5586 3.45909 12.9088 2.10883C14.2591 0.758569 16.0904 0 18 0Z" fill="white"/>
</svg>
