<svg width="36" height="35" viewBox="0 0 36 35" fill="none" xmlns="http://www.w3.org/2000/svg">
<path d="M6.85714 0V34.2857H0V0H6.85714ZM10.2857 0H27.437C29.3259 0 30.8571 1.53979 30.8571 3.4128V30.8729C30.8571 32.7578 29.327 34.2857 27.437 34.2857H10.2857V0ZM32.5714 6.85714H36V13.7143H32.5714V6.85714ZM32.5714 17.1429H36V24H32.5714V17.1429ZM20.5714 17.1429C22.465 17.1429 24 15.6079 24 13.7143C24 11.8207 22.465 10.2857 20.5714 10.2857C18.6778 10.2857 17.1429 11.8207 17.1429 13.7143C17.1429 15.6079 18.6778 17.1429 20.5714 17.1429ZM15.4286 24H25.7143C25.7143 21.1596 23.4118 18.8571 20.5714 18.8571C17.731 18.8571 15.4286 21.1596 15.4286 24Z" fill="white"/>
</svg>
