<svg width="36" height="36" viewBox="0 0 36 36" fill="none" xmlns="http://www.w3.org/2000/svg">
<path d="M14.4 31.9464V25.92C14.4 23.6113 16.1906 21.7937 18.8401 20.7578C17.1776 20.1384 15.3783 19.8 13.5 19.8C10.0982 19.8 6.95578 20.9102 4.41515 22.788C5.99758 27.2779 9.74291 30.7476 14.4 31.9464ZM30.3829 25.3546C29.6752 24.3947 27.3074 23.4 24.3 23.4C20.689 23.4 18 24.8341 18 25.92V32.4C23.2659 32.4 27.8717 29.5733 30.3829 25.3546ZM13.59 17.1C15.8267 17.1 17.64 15.2867 17.64 13.05C17.64 10.8132 15.8267 9 13.59 9C11.3532 9 9.54 10.8132 9.54 13.05C9.54 15.2867 11.3532 17.1 13.59 17.1ZM24.3 18.9C26.2883 18.9 27.9 17.2883 27.9 15.3C27.9 13.3118 26.2883 11.7 24.3 11.7C22.3117 11.7 20.7 13.3118 20.7 15.3C20.7 17.2883 22.3117 18.9 24.3 18.9ZM18 36C8.05887 36 0 27.941 0 18C0 8.05887 8.05887 0 18 0C27.941 0 36 8.05887 36 18C36 27.941 27.941 36 18 36Z" fill="white"/>
</svg>
