<svg width="36" height="36" viewBox="0 0 36 36" fill="none" xmlns="http://www.w3.org/2000/svg">
<path id="Vector" d="M8 7.19999V1.8C8 1.32261 8.21071 0.864772 8.58579 0.527207C8.96086 0.189642 9.46957 0 10 0H34C34.5304 0 35.0391 0.189642 35.4142 0.527207C35.7893 0.864772 36 1.32261 36 1.8V27C36 27.4774 35.7893 27.9352 35.4142 28.2728C35.0391 28.6103 34.5304 28.8 34 28.8H28V34.2C28 35.1936 27.1 36 25.986 36H2.014C1.75025 36.0014 1.48879 35.9559 1.24464 35.8661C1.00049 35.7763 0.778467 35.644 0.591317 35.4767C0.404168 35.3094 0.255586 35.1105 0.154109 34.8914C0.0526312 34.6723 0.000258749 34.4373 0 34.2L0.00600004 8.99999C0.00600004 8.00639 0.906 7.19999 2.02 7.19999H8ZM12 7.19999H28V25.2H32V3.6H12V7.19999ZM8 16.2V19.8H20V16.2H8ZM8 23.4V27H20V23.4H8Z" fill="white"/>
</svg>
