<svg width="198" height="112" viewBox="0 0 198 112" fill="none" xmlns="http://www.w3.org/2000/svg">
<g id="Group 1">
<g id="SvgjsG1116">
<g id="Group">
<g id="Group_2">
<g id="Group_3">
<path id="Vector" d="M106.737 65.22C105.645 65.22 104.752 64.3028 104.752 63.1819V42.8006C104.752 39.4377 102.073 36.6862 98.7986 36.6862C95.5241 36.6862 92.845 39.4377 92.845 42.8006V63.1819C92.845 64.3028 91.952 65.22 90.8605 65.22C89.769 65.22 88.876 64.3028 88.876 63.1819V42.8006C88.876 37.1958 93.3412 32.61 98.7986 32.61C104.256 32.61 108.721 37.1958 108.721 42.8006V63.1819C108.721 64.3028 107.828 65.22 106.737 65.22Z" fill="#73299A"/>
</g>
<g id="Group_4">
<path id="Vector_2" d="M123.307 24.1519C122.712 24.1519 122.216 23.9481 121.819 23.4386C120.529 21.91 119.14 20.4833 117.651 19.1585C116.758 18.4452 116.659 17.1204 117.354 16.3051C118.048 15.388 119.338 15.2861 120.132 15.9994C121.819 17.4261 123.506 19.0566 124.895 20.8909C125.59 21.8081 125.49 23.0309 124.597 23.7443C124.2 23.9481 123.704 24.1519 123.307 24.1519ZM75.6787 22.5214C75.1826 22.5214 74.6864 22.3176 74.2895 22.0119C73.4957 21.1966 73.4957 19.9738 74.1903 19.1585C75.8772 17.3242 77.7625 15.6937 79.747 14.267C80.64 13.6556 81.93 13.8594 82.5253 14.7765C83.1207 15.6937 82.9222 17.0185 82.0292 17.6299C80.2431 18.8528 78.5563 20.3814 77.0679 22.0119C76.671 22.3176 76.1748 22.5214 75.6787 22.5214ZM112.095 15.1842C111.797 15.1842 111.499 15.0823 111.301 14.9803C107.332 13.146 103.164 12.127 98.7985 12.127C95.3255 12.127 91.8526 12.7384 88.6774 13.9613C87.6851 14.3689 86.4944 13.7575 86.0975 12.7384C85.7006 11.7193 86.2959 10.4965 87.2882 10.0888C90.9596 8.66216 94.8294 8.05072 98.7985 8.05072C103.76 8.05072 108.523 9.17169 112.988 11.2098C113.98 11.7193 114.377 12.9422 113.98 13.9613C113.583 14.7765 112.889 15.1842 112.095 15.1842Z" fill="#73299A"/>
</g>
<g id="Group_5">
<path id="Vector_3" d="M118.941 9.6811C118.644 9.6811 118.247 9.57919 117.949 9.37538C112.095 5.91056 105.546 4.07625 98.7985 4.07625C93.0434 4.07625 87.4867 5.40103 82.4262 7.94869C81.4339 8.45822 80.2432 8.05059 79.747 7.03153C79.2509 6.01247 79.6478 4.78959 80.6401 4.28006C86.296 1.42669 92.448 0 98.7985 0C106.24 0 113.583 2.03813 119.934 5.91056C120.926 6.522 121.224 7.74488 120.628 8.66203C120.231 9.37538 119.636 9.6811 118.941 9.6811Z" fill="#73299A"/>
</g>
<g id="Group_6">
<path id="Vector_4" d="M74.9845 65.2201C73.893 65.2201 73 64.3029 73 63.1819V42.8007C73 28.2281 84.6095 16.3051 98.7989 16.3051C112.095 16.3051 123.109 26.4957 124.499 40.0492C124.598 41.1702 123.804 42.1892 122.712 42.2912C121.621 42.3931 120.629 41.5778 120.529 40.4568C119.339 29.0433 110.011 20.3813 98.7989 20.3813C86.7925 20.3813 76.9691 30.47 76.9691 42.8007V63.1819C76.9691 64.3029 76.076 65.2201 74.9845 65.2201Z" fill="#73299A"/>
</g>
<g id="Group_7">
<path id="Vector_5" d="M114.675 65.2201C113.584 65.2201 112.691 64.3029 112.691 63.1819V56.0485C112.691 54.9275 113.584 54.0104 114.675 54.0104C115.767 54.0104 116.66 54.9275 116.66 56.0485V63.1819C116.66 64.3029 115.767 65.2201 114.675 65.2201ZM114.675 49.9341C113.584 49.9341 112.691 49.017 112.691 47.896V42.8007C112.691 36.6863 108.821 31.1834 103.165 29.2472C102.173 28.9414 101.577 27.7186 101.875 26.6995C102.173 25.6804 103.363 25.069 104.356 25.3747C111.698 27.9224 116.66 34.852 116.66 42.8007V47.896C116.66 49.017 115.767 49.9341 114.675 49.9341ZM90.4639 30.9796C89.7693 30.9796 89.1739 30.6738 88.777 30.0624C88.1817 29.1452 88.4793 27.8205 89.3724 27.209C91.2577 25.9862 93.4407 25.1709 95.6236 24.7633C96.7151 24.5595 97.7074 25.2728 97.9059 26.3938C98.1043 27.5147 97.4097 28.5338 96.3182 28.7376C94.6314 29.0433 92.9445 29.6548 91.4561 30.6738C91.1585 30.8777 90.7616 30.9796 90.4639 30.9796Z" fill="#73299A"/>
</g>
<g id="Group_8">
<path id="Vector_6" d="M98.799 65.22C97.7075 65.22 96.8145 64.3029 96.8145 63.1819V58.698C96.8145 57.5771 97.7075 56.6599 98.799 56.6599C99.8905 56.6599 100.784 57.5771 100.784 58.698V63.1819C100.784 64.3029 99.8905 65.22 98.799 65.22ZM98.799 52.5837C97.7075 52.5837 96.8145 51.6665 96.8145 50.5455V43.4121C96.8145 42.2911 97.7075 41.374 98.799 41.374C99.8905 41.374 100.784 42.2911 100.784 43.4121V50.5455C100.784 51.6665 99.8905 52.5837 98.799 52.5837Z" fill="#73299A"/>
</g>
</g>
</g>
</g>
<g id="SvgjsG1117">
<path id="Vector_7" d="M10.3481 83.5776C12.746 83.5776 14.7801 84.2943 16.4509 85.7274C18.1216 87.1605 19.0453 88.9874 19.2222 91.2077H14.7999C14.5247 89.9966 13.9941 89.0882 13.2079 88.4827C12.4217 87.8771 11.4684 87.5743 10.3481 87.5743C8.53993 87.5743 7.1346 88.2455 6.13222 89.5878C5.12984 90.9302 4.62865 92.7316 4.62865 94.9925C4.62865 97.2128 5.13966 98.974 6.1617 100.276C7.18375 101.578 8.57921 102.229 10.3481 102.229C13.375 102.229 15.0455 100.675 15.36 97.5661H10.7019V94.0236H19.5465V105.711H16.5983L16.1266 103.258C14.6525 105.237 12.7264 106.226 10.3481 106.226C7.2428 106.226 4.74156 105.176 2.845 103.077C0.948431 100.977 0 98.2828 0 94.9925C0 91.6416 0.943419 88.9014 2.83026 86.772C4.71709 84.6425 7.22305 83.5776 10.3481 83.5776ZM27.0348 90.0571V98.9286C27.0348 100.14 27.2215 101.078 27.595 101.744C27.9684 102.411 28.676 102.744 29.7177 102.744C30.8773 102.744 31.7077 102.39 32.2089 101.684C32.7101 100.977 32.9607 99.8471 32.9607 98.2928V90.0571H37.1471V105.711H33.1671V103.531H33.0786C32.0369 105.267 30.4744 106.135 28.391 106.135C26.4059 106.135 24.9859 105.615 24.1309 104.575C23.2759 103.536 22.8484 101.936 22.8484 99.7764V90.0571H27.0348ZM47.3478 89.6333C51.7899 89.6534 54.0107 91.137 54.0107 94.0841V102.38C54.0107 103.914 54.1876 105.025 54.5414 105.711H50.296C50.1388 105.226 50.0405 104.722 50.0012 104.197C48.763 105.489 47.053 106.135 44.8714 106.135C43.2794 106.135 42.0166 105.721 41.083 104.893C40.1493 104.066 39.6826 102.915 39.6826 101.442C39.6826 100.009 40.1248 98.8983 41.0093 98.1111C41.9134 97.2835 43.5546 96.7587 45.9327 96.5366C47.623 96.355 48.6941 96.1279 49.1462 95.8554C49.5984 95.5829 49.8243 95.1641 49.8243 94.5989C49.8243 93.8924 49.618 93.3676 49.2052 93.0244C48.7925 92.6812 48.1046 92.5097 47.1415 92.5097C46.257 92.5097 45.5887 92.6964 45.1367 93.0698C44.6847 93.4432 44.4193 94.0437 44.3407 94.8714H40.1543C40.2525 93.1556 40.9404 91.8536 42.218 90.9655C43.4956 90.0774 45.2054 89.6333 47.3478 89.6333ZM43.869 101.26C43.869 102.592 44.7239 103.258 46.4339 103.258C48.6745 103.238 49.8046 102.057 49.8243 99.7158V98.0506C49.4902 98.3937 48.645 98.646 47.2889 98.8075C46.1096 98.9488 45.2448 99.1961 44.6945 99.5493C44.1441 99.9026 43.869 100.473 43.869 101.26ZM66.1572 89.6333C66.511 89.6333 66.8157 89.6837 67.0712 89.7846V93.7813C66.6191 93.6804 66.118 93.63 65.5676 93.63C62.816 93.63 61.4401 95.3053 61.4401 98.6561V105.711H57.2537V90.0571H61.2338V92.9638H61.2927C61.7055 91.9546 62.359 91.1472 63.2533 90.5416C64.1475 89.936 65.1155 89.6333 66.1572 89.6333ZM83.0503 84.0924V105.711H79.0703V103.713H79.0113C78.1072 105.327 76.5643 106.135 74.3827 106.135C72.2797 106.135 70.614 105.348 69.3855 103.773C68.157 102.199 67.5429 100.19 67.5429 97.7478C67.5429 95.3659 68.1669 93.418 69.415 91.9041C70.663 90.3902 72.2895 89.6333 74.2942 89.6333C75.218 89.6333 76.0877 89.8301 76.9034 90.2237C77.7191 90.6173 78.3529 91.1976 78.8049 91.9647H78.8639V84.0924H83.0503ZM71.7293 97.8689C71.7293 99.302 72.0585 100.498 72.7169 101.457C73.3754 102.416 74.2745 102.895 75.4145 102.895C76.6135 102.895 77.5127 102.446 78.1121 101.548C78.7116 100.649 79.0113 99.4131 79.0113 97.8386C79.0113 96.2641 78.6968 95.043 78.0679 94.175C77.439 93.307 76.5447 92.873 75.385 92.873C74.1861 92.873 73.2771 93.3272 72.658 94.2355C72.0389 95.1439 71.7293 96.355 71.7293 97.8689ZM93.2216 89.6333C97.6636 89.6534 99.8844 91.137 99.8844 94.0841V102.38C99.8844 103.914 100.061 105.025 100.415 105.711H96.1697C96.0125 105.226 95.9142 104.722 95.8749 104.197C94.6367 105.489 92.9268 106.135 90.7451 106.135C89.1531 106.135 87.8903 105.721 86.9567 104.893C86.0231 104.066 85.5563 102.915 85.5563 101.442C85.5563 100.009 85.9985 98.8983 86.883 98.1111C87.7871 97.2835 89.4283 96.7587 91.8065 96.5366C93.4967 96.355 94.5679 96.1279 95.02 95.8554C95.4721 95.5829 95.6981 95.1641 95.6981 94.5989C95.6981 93.8924 95.4917 93.3676 95.0789 93.0244C94.6662 92.6812 93.9783 92.5097 93.0152 92.5097C92.1308 92.5097 91.4625 92.6964 91.0105 93.0698C90.5584 93.4432 90.2931 94.0437 90.2144 94.8714H86.028C86.1263 93.1556 86.8142 91.8536 88.0918 90.9655C89.3693 90.0774 91.0791 89.6333 93.2216 89.6333ZM89.7427 101.26C89.7427 102.592 90.5977 103.258 92.3076 103.258C94.5482 103.238 95.6783 102.057 95.698 99.7158V98.0506C95.3639 98.3937 94.5188 98.646 93.1626 98.8075C91.9833 98.9488 91.1185 99.1961 90.5682 99.5493C90.0178 99.9026 89.7427 100.473 89.7427 101.26ZM120.787 84.0924C123.774 84.0924 126.123 85.0411 127.833 86.9385C129.543 88.836 130.398 91.4499 130.398 94.7805C130.398 98.2322 129.538 100.917 127.818 102.834C126.099 104.752 123.794 105.711 120.905 105.711H111.766V84.0924H120.787ZM120.492 101.714C122.163 101.714 123.46 101.149 124.384 100.019C125.308 98.8883 125.77 97.2835 125.77 95.2044C125.77 92.8225 125.273 91.0412 124.281 89.8603C123.288 88.6795 121.76 88.0891 119.696 88.0891H116.394V101.714H120.492ZM137.474 84.0924V87.6349H133.287V84.0924H137.474ZM137.474 90.0571V105.711H133.287V90.0571H137.474ZM146.849 89.6333C148.952 89.6333 150.466 90.4709 151.389 92.1463H151.448V90.0571H155.428V104.742C155.428 107.003 154.745 108.718 153.379 109.889C152.013 111.06 150.072 111.645 147.557 111.645C145.63 111.645 144.043 111.171 142.795 110.222C141.547 109.274 140.884 108.073 140.805 106.619H144.962C145.296 108.052 146.338 108.769 148.087 108.769C149.168 108.769 149.999 108.441 150.578 107.785C151.158 107.129 151.448 106.195 151.448 104.984V102.834H151.389C150.976 103.602 150.372 104.197 149.576 104.621C148.78 105.045 147.861 105.257 146.82 105.257C144.775 105.257 143.179 104.57 142.029 103.198C140.879 101.825 140.304 99.8875 140.304 97.3844C140.304 95.1641 140.908 93.3172 142.117 91.8435C143.326 90.3699 144.903 89.6333 146.849 89.6333ZM144.49 97.3239C144.49 98.7974 144.79 99.9479 145.39 100.776C145.989 101.603 146.82 102.017 147.881 102.017C148.962 102.017 149.827 101.618 150.475 100.821C151.124 100.024 151.448 98.969 151.448 97.6569C151.448 96.0825 151.139 94.8916 150.52 94.0841C149.9 93.2767 149.011 92.873 147.851 92.873C146.77 92.873 145.94 93.2918 145.36 94.1295C144.78 94.9672 144.49 96.0321 144.49 97.3239ZM163.094 84.0924V87.6349H158.907V84.0924H163.094ZM163.094 90.0571V105.711H158.907V90.0571H163.094ZM171.702 85.364L171.702 90.0571H174.768V92.9336H171.702V100.685C171.702 101.411 171.82 101.896 172.056 102.138C172.292 102.38 172.764 102.501 173.471 102.501C173.982 102.501 174.415 102.461 174.768 102.38V105.741C174.179 105.842 173.353 105.893 172.292 105.893C170.68 105.893 169.481 105.61 168.695 105.045C167.909 104.48 167.516 103.501 167.516 102.108V92.9336H164.98V90.0571H167.516V85.364H171.702ZM183.79 89.6333C188.232 89.6534 190.453 91.137 190.453 94.0841V102.38C190.453 103.914 190.63 105.025 190.983 105.711H186.738C186.581 105.226 186.482 104.722 186.443 104.197C185.205 105.489 183.495 106.135 181.313 106.135C179.721 106.135 178.458 105.721 177.525 104.893C176.591 104.066 176.124 102.915 176.124 101.442C176.124 100.009 176.567 98.8983 177.451 98.1111C178.355 97.2835 179.996 96.7587 182.375 96.5366C184.065 96.355 185.136 96.1279 185.588 95.8554C186.04 95.5829 186.266 95.1641 186.266 94.5989C186.266 93.8924 186.06 93.3676 185.647 93.0244C185.234 92.6812 184.546 92.5097 183.583 92.5097C182.699 92.5097 182.031 92.6964 181.579 93.0698C181.127 93.4432 180.861 94.0437 180.783 94.8714H176.596C176.694 93.1556 177.382 91.8536 178.66 90.9655C179.938 90.0774 181.647 89.6333 183.79 89.6333ZM180.311 101.26C180.311 102.592 181.166 103.258 182.876 103.258C185.116 103.238 186.246 102.057 186.266 99.7158V98.0506C185.932 98.3937 185.087 98.646 183.731 98.8075C182.552 98.9488 181.687 99.1961 181.136 99.5493C180.586 99.9026 180.311 100.473 180.311 101.26ZM198 84.0924V105.711H193.814V84.0924H198Z" fill="#73299A"/>
</g>
</g>
</svg>
