<svg width="36" height="32" viewBox="0 0 36 32" fill="none" xmlns="http://www.w3.org/2000/svg">
<path id="Vector" d="M26.1 0C31.5677 0 36 4.29253 36 10.3021C36 22.3211 22.5 29.1892 18 31.7647C14.4403 29.7275 5.24925 25.0041 1.5633 17.1701H10.0191L11.7 14.4979L17.1 23.083L20.8192 17.1701H27V13.7361H18.7808L17.1 16.4083L11.7 7.8233L7.98086 13.7361L0.378432 13.7359C0.133524 12.6417 0 11.4974 0 10.3021C0 4.29253 4.5 0 9.9 0C13.2479 0 16.2 1.71701 18 3.43402C19.8 1.71701 22.752 0 26.1 0Z" fill="white"/>
</svg>
