<svg width="25" height="25" viewBox="0 0 25 25" fill="none" xmlns="http://www.w3.org/2000/svg">
<g id="Group">
<path id="Vector" d="M12.4639 24.5C5.83627 24.5 0.463867 19.1276 0.463867 12.5C0.463867 5.8724 5.83627 0.5 12.4639 0.5C19.0915 0.5 24.4639 5.8724 24.4639 12.5C24.4639 19.1276 19.0915 24.5 12.4639 24.5ZM12.4639 22.1C15.0099 22.1 17.4517 21.0886 19.2521 19.2882C21.0524 17.4879 22.0639 15.0461 22.0639 12.5C22.0639 9.95392 21.0524 7.51212 19.2521 5.71178C17.4517 3.91143 15.0099 2.9 12.4639 2.9C9.91779 2.9 7.47599 3.91143 5.67564 5.71178C3.87529 7.51212 2.86387 9.95392 2.86387 12.5C2.86387 15.0461 3.87529 17.4879 5.67564 19.2882C7.47599 21.0886 9.91779 22.1 12.4639 22.1ZM11.2639 16.1H13.6639V18.5H11.2639V16.1ZM13.6639 14.126V14.9H11.2639V13.1C11.2639 12.7817 11.3903 12.4765 11.6153 12.2515C11.8404 12.0264 12.1456 11.9 12.4639 11.9C12.8048 11.9 13.1386 11.8032 13.4267 11.6208C13.7147 11.4384 13.945 11.178 14.0908 10.8699C14.2366 10.5618 14.2919 10.2186 14.2503 9.88021C14.2087 9.54187 14.0718 9.2223 13.8557 8.95869C13.6395 8.69509 13.353 8.49828 13.0293 8.39116C12.7057 8.28405 12.3583 8.27104 12.0276 8.35365C11.6968 8.43625 11.3964 8.61108 11.1611 8.85778C10.9258 9.10448 10.7655 9.41292 10.6987 9.7472L8.34427 9.2756C8.49023 8.5461 8.82728 7.86844 9.32097 7.3119C9.81466 6.75536 10.4473 6.3399 11.1542 6.10798C11.8611 5.87607 12.6169 5.83602 13.3443 5.99194C14.0717 6.14785 14.7447 6.49414 15.2945 6.99539C15.8442 7.49664 16.251 8.13489 16.4732 8.84488C16.6954 9.55487 16.7251 10.3111 16.5593 11.0364C16.3935 11.7616 16.038 12.4298 15.5293 12.9726C15.0206 13.5155 14.3768 13.9135 13.6639 14.126Z" fill="#73299A"/>
</g>
</svg>
