<svg width="140" height="25" viewBox="0 0 140 25" fill="none" xmlns="http://www.w3.org/2000/svg">
<g id="Group 1">
<g id="SvgjsG1116">
<g id="Group">
<g id="Group_2">
<g id="Group_3">
<path id="Vector" d="M12.9333 25C12.5149 25 12.1726 24.6484 12.1726 24.2187V16.4062C12.1726 15.1171 11.1456 14.0624 9.89045 14.0624C8.63528 14.0624 7.60833 15.1171 7.60833 16.4062V24.2187C7.60833 24.6484 7.26601 25 6.84762 25C6.42923 25 6.08691 24.6484 6.08691 24.2187V16.4062C6.08691 14.2578 7.7985 12.4999 9.89045 12.4999C11.9824 12.4999 13.694 14.2578 13.694 16.4062V24.2187C13.694 24.6484 13.3517 25 12.9333 25Z" fill="#73299A"/>
</g>
<g id="Group_4">
<path id="Vector_2" d="M19.2854 9.25783C19.0571 9.25783 18.867 9.1797 18.7148 8.98439C18.2204 8.39845 17.6879 7.85157 17.1173 7.34376C16.775 7.07032 16.737 6.56251 17.0032 6.25001C17.2695 5.89844 17.7639 5.85938 18.0682 6.13282C18.7148 6.6797 19.3614 7.3047 19.8939 8.00782C20.1602 8.35939 20.1221 8.82814 19.7798 9.10158C19.6277 9.1797 19.4375 9.25783 19.2854 9.25783ZM1.02839 8.63283C0.838218 8.63283 0.648041 8.5547 0.4959 8.43751C0.191617 8.12501 0.191617 7.65626 0.457864 7.34376C1.10447 6.64063 1.82714 6.01563 2.58784 5.46876C2.93016 5.23438 3.42462 5.31251 3.65283 5.66407C3.88105 6.01563 3.80498 6.52345 3.46266 6.75782C2.77802 7.22657 2.13142 7.81251 1.56089 8.43751C1.40875 8.5547 1.21857 8.63283 1.02839 8.63283ZM14.9874 5.82032C14.8733 5.82032 14.7592 5.78126 14.6831 5.74219C13.1617 5.03907 11.5642 4.64844 9.89063 4.64844C8.55939 4.64844 7.22816 4.88282 6.01102 5.35157C5.63067 5.50782 5.17425 5.27344 5.02211 4.88282C4.86997 4.49219 5.09818 4.02344 5.47853 3.86719C6.88584 3.32031 8.36922 3.08594 9.89063 3.08594C11.7924 3.08594 13.6181 3.51563 15.3297 4.29688C15.71 4.49219 15.8622 4.96094 15.71 5.35157C15.5579 5.66407 15.2917 5.82032 14.9874 5.82032Z" fill="#73299A"/>
</g>
<g id="Group_5">
<path id="Vector_3" d="M17.6107 3.71088C17.4966 3.71088 17.3445 3.67182 17.2304 3.5937C14.9863 2.26557 12.4759 1.56244 9.88954 1.56244C7.68349 1.56244 5.55351 2.07026 3.61371 3.04682C3.23336 3.24213 2.77693 3.08588 2.58676 2.69526C2.39658 2.30463 2.54872 1.83588 2.92907 1.64057C5.09709 0.546815 7.45528 -6.10352e-05 9.88954 -6.10352e-05C12.7422 -6.10352e-05 15.5568 0.781191 17.9911 2.26557C18.3714 2.49994 18.4855 2.9687 18.2573 3.32026C18.1052 3.5937 17.877 3.71088 17.6107 3.71088Z" fill="#73299A"/>
</g>
<g id="Group_6">
<path id="Vector_4" d="M0.760707 25C0.342318 25 0 24.6484 0 24.2187V16.4062C0 10.8203 4.45013 6.24994 9.88919 6.24994C14.9859 6.24994 19.2078 10.1562 19.7403 15.3515C19.7784 15.7812 19.4741 16.1718 19.0557 16.2109C18.6373 16.25 18.257 15.9375 18.2189 15.5078C17.7625 11.1328 14.1872 7.81244 9.88919 7.81244C5.28691 7.81244 1.52141 11.6796 1.52141 16.4062V24.2187C1.52141 24.6484 1.1791 25 0.760707 25Z" fill="#73299A"/>
</g>
<g id="Group_7">
<path id="Vector_5" d="M15.9761 25C15.5577 25 15.2154 24.6485 15.2154 24.2188V21.4844C15.2154 21.0547 15.5577 20.7031 15.9761 20.7031C16.3945 20.7031 16.7368 21.0547 16.7368 21.4844V24.2188C16.7368 24.6485 16.3945 25 15.9761 25ZM15.9761 19.1406C15.5577 19.1406 15.2154 18.7891 15.2154 18.3594V16.4063C15.2154 14.0625 13.732 11.9531 11.564 11.2109C11.1837 11.0938 10.9555 10.625 11.0696 10.2344C11.1837 9.84375 11.6401 9.60937 12.0205 9.72656C14.8351 10.7031 16.7368 13.3594 16.7368 16.4063V18.3594C16.7368 18.7891 16.3945 19.1406 15.9761 19.1406ZM6.69551 11.875C6.42926 11.875 6.20105 11.7578 6.04891 11.5234C5.82069 11.1719 5.9348 10.6641 6.27712 10.4297C6.99979 9.96094 7.83657 9.64843 8.67334 9.49218C9.09173 9.41406 9.47209 9.6875 9.54816 10.1172C9.62423 10.5469 9.35798 10.9375 8.93959 11.0156C8.29299 11.1328 7.64639 11.3672 7.07586 11.7578C6.96175 11.8359 6.80961 11.875 6.69551 11.875Z" fill="#73299A"/>
</g>
<g id="Group_8">
<path id="Vector_6" d="M9.8901 25C9.47171 25 9.12939 24.6485 9.12939 24.2188V22.5C9.12939 22.0703 9.47171 21.7188 9.8901 21.7188C10.3085 21.7188 10.6508 22.0703 10.6508 22.5V24.2188C10.6508 24.6485 10.3085 25 9.8901 25ZM9.8901 20.1563C9.47171 20.1563 9.12939 19.8047 9.12939 19.375V16.6406C9.12939 16.2109 9.47171 15.8594 9.8901 15.8594C10.3085 15.8594 10.6508 16.2109 10.6508 16.6406V19.375C10.6508 19.8047 10.3085 20.1563 9.8901 20.1563Z" fill="#73299A"/>
</g>
</g>
</g>
</g>
<g id="SvgjsG1117">
<path id="Vector_7" d="M33.4962 4.66357C34.8571 4.66357 36.0116 5.0703 36.9599 5.88368C37.9081 6.69706 38.4323 7.73394 38.5327 8.99408H36.0228C35.8667 8.3067 35.5655 7.79116 35.1193 7.44747C34.673 7.10378 34.132 6.93193 33.4962 6.93193C32.4699 6.93193 31.6723 7.31286 31.1034 8.07471C30.5345 8.83655 30.2501 9.85898 30.2501 11.1421C30.2501 12.4023 30.5401 13.4019 31.1202 14.1408C31.7002 14.8798 32.4922 15.2493 33.4962 15.2493C35.2141 15.2493 36.1622 14.3671 36.3407 12.6028H33.697V10.5922H38.7168V17.2255H37.0435L36.7758 15.8335C35.9392 16.9562 34.846 17.5176 33.4962 17.5176C31.7338 17.5176 30.3142 16.9219 29.2377 15.7304C28.1613 14.539 27.623 13.0096 27.623 11.1421C27.623 9.24033 28.1585 7.68513 29.2294 6.47654C30.3003 5.26795 31.7225 4.66357 33.4962 4.66357ZM42.9669 8.34107V13.3761C42.9669 14.0635 43.0728 14.5962 43.2848 14.9743C43.4967 15.3524 43.8983 15.5414 44.4895 15.5414C45.1477 15.5414 45.619 15.3409 45.9034 14.9399C46.1879 14.539 46.3301 13.8974 46.3301 13.0153V8.34107H48.7062V17.2255H46.4473V15.9882H46.3971C45.8059 16.9734 44.919 17.4661 43.7366 17.4661C42.6099 17.4661 41.804 17.1711 41.3187 16.5811C40.8335 15.9911 40.5908 15.0832 40.5908 13.8573V8.34107H42.9669ZM54.4957 8.10048C57.0168 8.11194 58.2772 8.95395 58.2772 10.6266V15.3352C58.2772 16.2059 58.3776 16.836 58.5784 17.2255H56.1689C56.0797 16.9505 56.0239 16.6641 56.0016 16.3662C55.2988 17.0995 54.3283 17.4661 53.0901 17.4661C52.1866 17.4661 51.4699 17.2312 50.94 16.7615C50.4101 16.2918 50.1452 15.6388 50.1452 14.8025C50.1452 13.9891 50.3962 13.359 50.8982 12.9122C51.4113 12.4425 52.3428 12.1446 53.6925 12.0186C54.6518 11.9155 55.2598 11.7866 55.5164 11.6319C55.773 11.4772 55.9012 11.2395 55.9012 10.9187C55.9012 10.5178 55.7841 10.2199 55.5498 10.0252C55.3156 9.83036 54.9252 9.73301 54.3785 9.73301C53.8766 9.73301 53.4973 9.83899 53.2407 10.0509C52.9842 10.2629 52.8336 10.6037 52.7889 11.0734H50.4129C50.4687 10.0996 50.8591 9.36067 51.5842 8.8566C52.3093 8.35254 53.2797 8.10048 54.4957 8.10048ZM52.5212 14.6993C52.5212 15.4555 53.0064 15.8335 53.9769 15.8335C55.2486 15.8221 55.89 15.1519 55.9012 13.8229V12.8778C55.7116 13.0725 55.2319 13.2157 54.4622 13.3074C53.7929 13.3876 53.3021 13.5279 52.9897 13.7284C52.6774 13.9289 52.5212 14.2525 52.5212 14.6993ZM65.1711 8.10048C65.3719 8.10048 65.5448 8.12913 65.6898 8.1864V10.4548C65.4332 10.3975 65.1488 10.3688 64.8364 10.3688C63.2747 10.3688 62.4939 11.3197 62.4939 13.2215V17.2255H60.1178V8.34107H62.3767V9.99078H62.4102C62.6444 9.41798 63.0154 8.95971 63.5229 8.61602C64.0305 8.27233 64.5798 8.10048 65.1711 8.10048ZM74.7589 4.95571V17.2255H72.5V16.0913H72.4665C71.9534 17.0078 71.0777 17.4661 69.8395 17.4661C68.6459 17.4661 67.7005 17.0193 67.0033 16.1257C66.306 15.2321 65.9575 14.0922 65.9575 12.7059C65.9575 11.3541 66.3117 10.2486 67.02 9.38932C67.7284 8.5301 68.6515 8.10048 69.7893 8.10048C70.3136 8.10048 70.8072 8.21218 71.2701 8.43558C71.7331 8.65898 72.0928 8.98837 72.3494 9.42369H72.3828V4.95571H74.7589ZM68.3335 12.7747C68.3335 13.5881 68.5204 14.2669 68.8941 14.811C69.2678 15.3552 69.7781 15.6273 70.4251 15.6273C71.1056 15.6273 71.6159 15.3724 71.9562 14.8626C72.2964 14.3528 72.4665 13.6511 72.4665 12.7575C72.4665 11.8639 72.288 11.1708 71.9311 10.6782C71.5741 10.1855 71.0666 9.93923 70.4084 9.93923C69.7279 9.93923 69.212 10.197 68.8606 10.7125C68.5092 11.2281 68.3335 11.9155 68.3335 12.7747ZM80.5316 8.10048C83.0527 8.11194 84.3132 8.95395 84.3132 10.6266V15.3352C84.3132 16.2059 84.4136 16.836 84.6144 17.2255H82.2049C82.1157 16.9505 82.0599 16.6641 82.0376 16.3662C81.3348 17.0995 80.3643 17.4661 79.1261 17.4661C78.2225 17.4661 77.5058 17.2312 76.976 16.7615C76.4461 16.2918 76.1812 15.6388 76.1812 14.8025C76.1812 13.9891 76.4322 13.359 76.9341 12.9122C77.4473 12.4425 78.3787 12.1446 79.7285 12.0186C80.6878 11.9155 81.2957 11.7866 81.5523 11.6319C81.8089 11.4772 81.9372 11.2395 81.9372 10.9187C81.9372 10.5178 81.8201 10.2199 81.5858 10.0252C81.3515 9.83036 80.9611 9.73301 80.4145 9.73301C79.9125 9.73301 79.5333 9.83899 79.2767 10.0509C79.0201 10.2629 78.8695 10.6037 78.8249 11.0734H76.4489C76.5047 10.0996 76.8951 9.36067 77.6202 8.8566C78.3453 8.35254 79.3157 8.10048 80.5316 8.10048ZM78.5572 14.6993C78.5572 15.4555 79.0424 15.8335 80.0129 15.8335C81.2846 15.8221 81.926 15.1519 81.9372 13.8229V12.8778C81.7475 13.0725 81.2679 13.2157 80.4982 13.3074C79.8289 13.3876 79.3381 13.5279 79.0257 13.7284C78.7133 13.9289 78.5572 14.2525 78.5572 14.6993ZM96.1766 4.95571C97.8722 4.95571 99.2052 5.49415 100.176 6.57106C101.146 7.64797 101.631 9.13156 101.631 11.0219C101.631 12.9809 101.143 14.5046 100.167 15.5929C99.1913 16.6812 97.8834 17.2255 96.2436 17.2255H91.0565V4.95571H96.1766ZM96.0093 14.9571C96.9575 14.9571 97.6938 14.6363 98.218 13.9948C98.7422 13.3532 99.0045 12.4425 99.0045 11.2624C99.0045 9.91057 98.7228 8.89956 98.1595 8.22937C97.5961 7.55917 96.7288 7.22407 95.5575 7.22407H93.6835V14.9571H96.0093ZM105.647 4.95571V6.9663H103.271V4.95571H105.647ZM105.647 8.34107V17.2255H103.271V8.34107H105.647ZM110.968 8.10048C112.162 8.10048 113.021 8.57589 113.545 9.5268H113.579V8.34107H115.837V16.6756C115.837 17.9587 115.45 18.9324 114.675 19.5969C113.899 20.2615 112.798 20.5936 111.37 20.5936C110.277 20.5936 109.376 20.3244 108.668 19.786C107.959 19.2475 107.583 18.5659 107.538 17.741H109.897C110.087 18.5544 110.678 18.9611 111.671 18.9611C112.285 18.9611 112.756 18.775 113.085 18.4026C113.414 18.0303 113.579 17.5004 113.579 16.813V15.5929H113.545C113.311 16.0283 112.968 16.3662 112.516 16.6068C112.064 16.8474 111.543 16.9677 110.952 16.9677C109.791 16.9677 108.885 16.5782 108.232 15.7992C107.58 15.0201 107.254 13.9204 107.254 12.4997C107.254 11.2395 107.597 10.1913 108.283 9.35495C108.969 8.51858 109.864 8.10048 110.968 8.10048ZM109.63 12.4654C109.63 13.3017 109.8 13.9547 110.14 14.4244C110.48 14.8941 110.952 15.129 111.554 15.129C112.167 15.129 112.658 14.9027 113.026 14.4502C113.395 13.9977 113.579 13.3991 113.579 12.6544C113.579 11.7608 113.403 11.0849 113.051 10.6266C112.7 10.1683 112.195 9.93923 111.537 9.93923C110.924 9.93923 110.452 10.1769 110.123 10.6524C109.794 11.1278 109.63 11.7322 109.63 12.4654ZM120.188 4.95571V6.9663H117.812V4.95571H120.188ZM120.188 8.34107V17.2255H117.812V8.34107H120.188ZM125.074 5.67746L125.074 8.34107H126.814V9.9736H125.074V14.3728C125.074 14.7853 125.141 15.0602 125.275 15.1977C125.409 15.3352 125.676 15.4039 126.078 15.4039C126.368 15.4039 126.613 15.381 126.814 15.3352V17.2427C126.479 17.2999 126.011 17.3286 125.409 17.3286C124.494 17.3286 123.813 17.1682 123.367 16.8474C122.921 16.5266 122.698 15.971 122.698 15.1805V9.9736H121.259V8.34107H122.698V5.67746H125.074ZM131.934 8.10048C134.455 8.11194 135.716 8.95395 135.716 10.6266V15.3352C135.716 16.2059 135.816 16.836 136.017 17.2255H133.608C133.518 16.9505 133.463 16.6641 133.44 16.3662C132.737 17.0995 131.767 17.4661 130.529 17.4661C129.625 17.4661 128.908 17.2312 128.379 16.7615C127.849 16.2918 127.584 15.6388 127.584 14.8025C127.584 13.9891 127.835 13.359 128.337 12.9122C128.85 12.4425 129.781 12.1446 131.131 12.0186C132.09 11.9155 132.698 11.7866 132.955 11.6319C133.212 11.4772 133.34 11.2395 133.34 10.9187C133.34 10.5178 133.223 10.2199 132.988 10.0252C132.754 9.83036 132.364 9.73301 131.817 9.73301C131.315 9.73301 130.936 9.83899 130.679 10.0509C130.423 10.2629 130.272 10.6037 130.228 11.0734H127.852C127.907 10.0996 128.298 9.36067 129.023 8.8566C129.748 8.35254 130.718 8.10048 131.934 8.10048ZM129.96 14.6993C129.96 15.4555 130.445 15.8335 131.416 15.8335C132.687 15.8221 133.329 15.1519 133.34 13.8229V12.8778C133.15 13.0725 132.671 13.2157 131.901 13.3074C131.232 13.3876 130.741 13.5279 130.428 13.7284C130.116 13.9289 129.96 14.2525 129.96 14.6993ZM139.999 4.95571V17.2255H137.623V4.95571H139.999Z" fill="#73299A"/>
</g>
</g>
</svg>
