<svg width="32" height="36" viewBox="0 0 32 36" fill="none" xmlns="http://www.w3.org/2000/svg">
<path id="Vector" d="M24.7692 25.2H28.3077V3.60001H10.6151V7.20001H24.7692V25.2ZM24.7692 28.8V34.1986C24.7692 35.1934 23.973 36 22.9877 36H1.78103C0.797223 36 0 35.1997 0 34.1986L0.00459997 9.00158C0.00479458 8.00661 0.800832 7.20001 1.78591 7.20001H7.07664V1.8C7.07664 0.805879 7.86877 0 8.84589 0H30.0769C31.0541 0 31.8462 0.805879 31.8462 1.8V27C31.8462 27.9941 31.0541 28.8 30.0769 28.8H24.7692ZM3.54278 10.8L3.53883 32.4H21.2307V10.8H3.54278ZM7.07664 25.2H15.0383C15.5268 25.2 15.9229 24.7971 15.9229 24.3C15.9229 23.803 15.5268 23.4 15.0383 23.4H9.73051C7.28769 23.4 5.30739 21.3852 5.30739 18.9C5.30739 16.4147 7.28769 14.4 9.73051 14.4H10.6151V12.6H14.1537V14.4H17.6922V18H9.73051C9.24195 18 8.84589 18.403 8.84589 18.9C8.84589 19.3971 9.24195 19.8 9.73051 19.8H15.0383C17.4811 19.8 19.4614 21.8147 19.4614 24.3C19.4614 26.7852 17.4811 28.8 15.0383 28.8H14.1537V30.6H10.6151V28.8H7.07664V25.2Z" fill="white"/>
</svg>
