<svg width="33" height="36" viewBox="0 0 33 36" fill="none" xmlns="http://www.w3.org/2000/svg">
<path id="Vector" d="M20.0549 32.3087L16.3636 36L12.6723 32.3087C5.4154 30.6334 0 24.127 0 16.3636C0 7.33091 7.33091 0 16.3636 0C25.3964 0 32.7273 7.33091 32.7273 16.3636C32.7273 24.127 27.3119 30.6334 20.0549 32.3087ZM6.58361 21.9539C8.98499 25.5386 12.592 27.8182 16.625 27.8182C20.6579 27.8182 24.265 25.5386 26.6663 21.9539C24.0357 19.5009 20.5056 18 16.625 18C12.7443 18 9.21428 19.5009 6.58361 21.9539ZM16.3636 14.7273C19.0749 14.7273 21.2727 12.5294 21.2727 9.81818C21.2727 7.10697 19.0749 4.90909 16.3636 4.90909C13.6523 4.90909 11.4545 7.10697 11.4545 9.81818C11.4545 12.5294 13.6523 14.7273 16.3636 14.7273Z" fill="white"/>
</svg>
