<svg width="28" height="36" viewBox="0 0 28 36" fill="none" xmlns="http://www.w3.org/2000/svg">
<path id="Vector" d="M27.9417 36H0.0585938V32.5714C0.0585938 30.2981 0.976616 28.118 2.61071 26.5105C4.2448 24.9031 6.4611 24 8.77205 24H19.2282C21.5392 24 23.7555 24.9031 25.3896 26.5105C27.0236 28.118 27.9417 30.2981 27.9417 32.5714V36ZM14.0001 20.5714C12.627 20.5714 11.2673 20.3054 9.99873 19.7885C8.73013 19.2716 7.57746 18.5139 6.60651 17.5588C5.63557 16.6037 4.86538 15.4698 4.3399 14.2219C3.81443 12.974 3.54398 11.6365 3.54398 10.2857C3.54398 8.93497 3.81443 7.59746 4.3399 6.34954C4.86538 5.10162 5.63557 3.96773 6.60651 3.01262C7.57746 2.0575 8.73013 1.29986 9.99873 0.782953C11.2673 0.266048 12.627 -2.01276e-08 14.0001 0C16.7733 4.06495e-08 19.4328 1.08367 21.3937 3.01262C23.3547 4.94156 24.4563 7.55777 24.4563 10.2857C24.4563 13.0137 23.3547 15.6299 21.3937 17.5588C19.4328 19.4878 16.7733 20.5714 14.0001 20.5714Z" fill="white"/>
</svg>
