<svg width="36" height="36" viewBox="0 0 36 36" fill="none" xmlns="http://www.w3.org/2000/svg">
<path id="Vector" d="M0 36C0 32.3627 1.44606 28.8745 4.02008 26.3025C6.59409 23.7306 10.0852 22.2857 13.7254 22.2857C17.3656 22.2857 20.8567 23.7306 23.4307 26.3025C26.0047 28.8745 27.4508 32.3627 27.4508 36H0ZM13.7254 20.5714C8.03794 20.5714 3.43135 15.9686 3.43135 10.2857C3.43135 4.60286 8.03794 0 13.7254 0C19.4129 0 24.0194 4.60286 24.0194 10.2857C24.0194 15.9686 19.4129 20.5714 13.7254 20.5714ZM26.3579 24.3994C28.9823 25.0734 31.327 26.5574 33.0582 28.6403C34.7894 30.7231 35.8188 33.2986 36 36H30.8821C30.8821 31.5257 29.1665 27.4526 26.3579 24.3994ZM22.8871 20.4977C24.3248 19.2128 25.4746 17.6389 26.2611 15.879C27.0476 14.1191 27.453 12.2131 27.4508 10.2857C27.4544 7.94308 26.8547 5.63892 25.7094 3.59486C27.6526 3.98501 29.4007 5.0355 30.6564 6.56777C31.9122 8.10003 32.5982 10.0195 32.5978 12C32.5983 13.2214 32.3375 14.4287 31.8328 15.5412C31.3282 16.6536 30.5914 17.6454 29.6718 18.4501C28.7523 19.2548 27.6712 19.8538 26.5011 20.2069C25.3309 20.5601 24.0987 20.6592 22.8871 20.4977Z" fill="white"/>
</svg>
