<svg width="18" height="20" viewBox="0 0 18 20" fill="none" xmlns="http://www.w3.org/2000/svg">
<path id="Vector" d="M4.1159 17.7576C5.02983 17.7969 5.945 17.7173 6.83845 17.521C7.90591 17.2887 9.00519 17.2404 10.0889 17.3781C10.6856 17.4511 11.1633 17.558 11.4938 17.6584C12.6697 17.9583 14.3407 17.9016 14.7716 17.2112C15.089 16.7007 15.0475 16.3527 14.7432 15.9033C14.6747 15.8021 14.5973 15.7072 14.512 15.6197C14.2375 15.4003 13.9673 15.1756 13.7015 14.9457C13.0361 14.3725 12.398 13.7683 11.7894 13.135C11.1643 12.4915 10.5893 11.8012 10.0693 11.0702L10.03 11.0124C9.22068 9.76998 8.33061 9.84851 7.84631 10.6666C7.54107 11.1793 7.19257 11.665 6.80463 12.1184C6.35742 12.6441 5.8993 13.0892 5.38118 13.5331C5.24702 13.6476 4.83253 13.9912 4.93179 13.9083C4.92743 13.9116 4.91325 13.9247 4.98742 13.8309C4.88052 13.9618 3.95119 14.7875 3.6785 15.0984C3.11676 15.7343 2.88988 16.2764 2.97496 16.7127C3.05349 17.1228 3.21383 17.353 3.4658 17.5253C3.62507 17.6317 3.80255 17.7078 3.98937 17.75L4.1159 17.7576ZM11.8581 9.82124C13.359 11.9701 15.9289 13.9585 15.9289 13.9585C15.9289 13.9585 18.1791 15.8652 16.6237 18.363C15.0683 20.8609 10.8939 19.757 10.8939 19.757C10.8939 19.757 9.23595 19.2225 7.30966 19.6501C5.38446 20.081 3.7254 19.9174 3.7254 19.9174C3.7254 19.9174 1.31917 19.6501 0.832694 17.1261C0.346213 14.6021 3.07967 12.7194 3.29564 12.4533C3.50834 12.1838 4.94488 11.2829 5.9702 9.55401C6.99552 7.82405 9.87841 6.78346 11.8581 9.82124ZM17.8999 8.27236C17.8999 8.77193 18.1071 10.8826 16.2059 10.9251C14.3058 10.9665 14.2251 9.64018 14.2251 8.68903C14.2251 7.69316 14.4302 6.28389 15.9594 6.28389C17.4865 6.28389 17.8999 7.77715 17.8999 8.27345V8.27236ZM11.977 5.24331C10.6899 5.07751 10.3987 3.91039 10.523 2.74218C10.6278 1.78776 11.7698 0.321775 12.6839 0.532293C13.5968 0.739538 14.4291 1.95029 14.2611 2.99088C14.0964 4.03474 13.2674 5.41019 11.977 5.24331ZM6.50576 4.843C5.5677 4.843 4.80417 3.75987 4.80417 2.4215C4.80417 1.08313 5.56661 0 6.50576 0C7.44709 0 8.20735 1.08313 8.20735 2.4215C8.20735 3.75987 7.44709 4.843 6.50576 4.843ZM2.36849 9.82343C0.519644 10.2216 -0.168628 8.08148 0.034254 7.08015C0.034254 7.08015 0.252407 4.9128 1.7533 4.77864C2.94551 4.67502 3.82357 5.97957 3.9141 6.72566C3.96973 7.20995 4.22279 9.4253 2.36849 9.82343Z" fill="white"/>
</svg>
