<svg width="24" height="25" viewBox="0 0 24 25" fill="none" xmlns="http://www.w3.org/2000/svg">
<g id="Group">
<path id="Vector" d="M12.3941 15.3866V24.3169H3.46387C3.46387 21.9484 4.40473 19.677 6.07947 18.0022C7.75422 16.3275 10.0257 15.3866 12.3941 15.3866ZM12.3941 14.2703C8.69363 14.2703 5.69643 11.2731 5.69643 7.57267C5.69643 3.87221 8.69363 0.875 12.3941 0.875C16.0946 0.875 19.0918 3.87221 19.0918 7.57267C19.0918 11.2731 16.0946 14.2703 12.3941 14.2703ZM15.2908 20.7582C15.1493 20.1625 15.1493 19.5421 15.2908 18.9464L14.1835 18.3068L15.2998 16.3734L16.4071 17.013C16.8516 16.5921 17.3888 16.2816 17.9755 16.1066V14.8285H20.2081V16.1066C20.8019 16.283 21.3377 16.5978 21.7764 17.013L22.8838 16.3734L24.0001 18.3068L22.8927 18.9464C23.0341 19.5417 23.0341 20.1618 22.8927 20.757L24.0001 21.3967L22.8838 23.3301L21.7764 22.6904C21.332 23.1114 20.7947 23.4219 20.2081 23.5969V24.875H17.9755V23.5969C17.3888 23.4219 16.8516 23.1114 16.4071 22.6904L15.2998 23.3301L14.1835 21.3967L15.2908 20.7582ZM19.0918 18.7355C18.7957 18.7355 18.5118 18.8531 18.3024 19.0624C18.0931 19.2718 17.9755 19.5557 17.9755 19.8517C17.9755 20.1478 18.0931 20.4317 18.3024 20.6411C18.5118 20.8504 18.7957 20.968 19.0918 20.968C19.3878 20.968 19.6718 20.8504 19.8811 20.6411C20.0904 20.4317 20.2081 20.1478 20.2081 19.8517C20.2081 19.5557 20.0904 19.2718 19.8811 19.0624C19.6718 18.8531 19.3878 18.7355 19.0918 18.7355Z" fill="#73299A"/>
</g>
</svg>
