<svg width="31" height="36" viewBox="0 0 31 36" fill="none" xmlns="http://www.w3.org/2000/svg">
<path d="M13.3953 21.7674V25.1163C7.84681 25.1163 3.34884 29.6143 3.34884 35.1628H0C0 27.7647 5.9973 21.7674 13.3953 21.7674ZM13.3953 20.093C7.84465 20.093 3.34884 15.5972 3.34884 10.0465C3.34884 4.49581 7.84465 0 13.3953 0C18.946 0 23.4419 4.49581 23.4419 10.0465C23.4419 15.5972 18.946 20.093 13.3953 20.093ZM13.3953 16.7442C17.0958 16.7442 20.093 13.747 20.093 10.0465C20.093 6.34605 17.0958 3.34884 13.3953 3.34884C9.69488 3.34884 6.69767 6.34605 6.69767 10.0465C6.69767 13.747 9.69488 16.7442 13.3953 16.7442ZM17.7398 29.8239C17.6361 29.3879 17.5814 28.9329 17.5814 28.4651C17.5814 27.9974 17.6361 27.5425 17.7396 27.1065L16.0793 26.1479L17.7537 23.2476L19.4152 24.2069C20.0734 23.5844 20.876 23.1127 21.7674 22.8473V20.9302H25.1163V22.8473C26.0077 23.1127 26.8101 23.5844 27.4683 24.2069L29.13 23.2475L30.8046 26.1477L29.1441 27.1063C29.2476 27.5425 29.3023 27.9974 29.3023 28.4651C29.3023 28.9328 29.2476 29.3877 29.1441 29.8237L30.8046 30.7823L29.1302 33.6826L27.4685 32.7232C26.8103 33.3459 26.0079 33.8176 25.1164 34.0828V36H21.7676V34.083C20.8761 33.8177 20.0736 33.346 19.4154 32.7233L17.7539 33.6828L16.0793 30.7825L17.7398 29.8239ZM23.4419 30.9767C24.8289 30.9767 25.9535 29.8522 25.9535 28.4651C25.9535 27.078 24.8289 25.9535 23.4419 25.9535C22.0548 25.9535 20.9302 27.078 20.9302 28.4651C20.9302 29.8522 22.0548 30.9767 23.4419 30.9767Z" fill="white"/>
</svg>
