<svg width="18" height="19" viewBox="0 0 18 19" fill="none" xmlns="http://www.w3.org/2000/svg">
<path id="Vector" d="M15.4286 17.117V18.5456H13.7143V17.4027L7.35618 18.4624C7.1227 18.5013 6.9019 18.3436 6.86298 18.1101C6.85913 18.0868 6.85715 18.0632 6.85715 18.0397V16.8313H3.42857V18.5456H1.71428V16.8313H0.857142C0.38376 16.8313 0 16.4475 0 15.9741V3.11701C0 2.64363 0.38376 2.25987 0.857142 2.25987H6.85715V1.0515C6.85715 0.814805 7.04898 0.622925 7.28573 0.622925C7.3093 0.622925 7.33287 0.624879 7.35618 0.628762L16.4266 2.1405C16.8399 2.20938 17.1429 2.56697 17.1429 2.98598V4.8313H18V6.54558H17.1429V12.5456H18V14.2598H17.1429V16.1052C17.1429 16.5242 16.8399 16.8818 16.4266 16.9507L15.4286 17.117ZM1.71428 3.97415V15.117H6.85715V3.97415H1.71428ZM8.57144 16.5219L15.4286 15.3791V3.71209L8.57144 2.56923V16.5219ZM12.4286 11.6884C11.7185 11.6884 11.1429 10.729 11.1429 9.54557C11.1429 8.36211 11.7185 7.40272 12.4286 7.40272C13.1386 7.40272 13.7143 8.36211 13.7143 9.54557C13.7143 10.729 13.1386 11.6884 12.4286 11.6884Z" fill="white"/>
</svg>
