<svg width="36" height="36" viewBox="0 0 36 36" fill="none" xmlns="http://www.w3.org/2000/svg">
<path id="Vector" d="M13.7143 32.5566H6.85714V36H3.42857V32.5566H1.71428C0.767519 32.5566 0 31.7858 0 30.8349V5.0097C0 4.05885 0.767519 3.28802 1.71428 3.28802H13.7143V0.860842C13.7143 0.385416 14.098 0 14.5715 0C14.6186 0 14.6657 0.00392535 14.7124 0.0117246L32.8533 3.04826C33.6799 3.18661 34.2857 3.90488 34.2857 4.74651V8.45307H36V11.8964H34.2857V23.9482H36V27.3916H34.2857V31.0982C34.2857 31.9398 33.6799 32.658 32.8533 32.7965L30.8571 33.1305V36H27.4286V33.7045L14.7124 35.833C14.2454 35.9112 13.8038 35.5944 13.726 35.1254C13.7183 35.0786 13.7143 35.0312 13.7143 34.9839V32.5566ZM17.1429 31.9353L30.8571 29.6398V6.205L17.1429 3.90941V31.9353ZM24.8572 22.2265C23.437 22.2265 22.2857 20.2994 22.2857 17.9223C22.2857 15.5452 23.437 13.6181 24.8572 13.6181C26.2773 13.6181 27.4286 15.5452 27.4286 17.9223C27.4286 20.2994 26.2773 22.2265 24.8572 22.2265Z" fill="white"/>
</svg>
