<svg width="24" height="25" viewBox="0 0 24 25" fill="none" xmlns="http://www.w3.org/2000/svg">
<path id="Vector" d="M5.99981 6.49994V1.69989C5.99981 1.03715 6.53707 0.499878 7.19982 0.499878H22.8C23.4628 0.499878 24 1.03715 24 1.69989V17.3C24 17.9628 23.4628 18.5001 22.8 18.5001H18.0002V23.2911C18.0002 23.9588 17.4614 24.5001 16.7912 24.5001H1.20875C0.541037 24.5001 0 23.9614 0 23.2911L0.00331195 7.70893C0.00345596 7.04123 0.542166 6.49994 1.21231 6.49994H5.99981ZM8.39983 6.49994H16.7914C17.459 6.49994 18.0002 7.03865 18.0002 7.70893V16.1H21.6V2.8999H8.39983V6.49994ZM15.6002 8.89996H2.40308L2.40028 22.1001H15.6002V8.89996ZM7.80298 19.7001L3.5603 15.4574L5.25737 13.7604L7.80298 16.306L12.8943 11.2147L14.5913 12.9117L7.80298 19.7001Z" fill="white"/>
</svg>
